<mxfile host="app.diagrams.net" modified="2024-04-09T12:59:01.589Z" agent="Mozilla/5.0 (Windows NT 10.0; Win64; x64) AppleWebKit/537.36 (KHTML, like Gecko) Chrome/123.0.0.0 Safari/537.36" etag="YhhI7BM_TuqwMFCqcOp7" version="24.2.2" type="device">
  <diagram name="Page-1" id="khqpwIEivCmIp51rTKDs">
    <mxGraphModel dx="1434" dy="881" grid="1" gridSize="10" guides="1" tooltips="1" connect="1" arrows="1" fold="1" page="1" pageScale="1" pageWidth="827" pageHeight="1169" math="0" shadow="0">
      <root>
        <mxCell id="0" />
        <mxCell id="1" parent="0" />
        <mxCell id="1KUTH_EO7PLerWaIqpql-1" value="&lt;font style=&quot;font-size: 12px;&quot;&gt;&lt;b&gt;W12_MULTIPLY&lt;/b&gt;&lt;/font&gt;&lt;div style=&quot;&quot;&gt;&lt;font style=&quot;font-size: 12px;&quot;&gt;&lt;br&gt;&lt;/font&gt;&lt;/div&gt;&lt;div style=&quot;&quot;&gt;&lt;font style=&quot;font-size: 12px;&quot;&gt;Matrix Multiply Weights W12 with Inpit Data&lt;/font&gt;&lt;/div&gt;&lt;div style=&quot;&quot;&gt;&lt;font style=&quot;font-size: 12px;&quot;&gt;&lt;br&gt;&lt;/font&gt;&lt;/div&gt;&lt;div style=&quot;&quot;&gt;&lt;font style=&quot;font-size: 12px;&quot;&gt;w12 x a1 = [40 x 256] * [256 x 1]&lt;/font&gt;&lt;br&gt;&lt;/div&gt;&lt;div style=&quot;&quot;&gt;&lt;font style=&quot;font-size: 12px;&quot;&gt;=&amp;nbsp; [40 x 1]&lt;/font&gt;&lt;/div&gt;" style="ellipse;whiteSpace=wrap;html=1;" parent="1" vertex="1">
          <mxGeometry x="401" y="127" width="210" height="133" as="geometry" />
        </mxCell>
        <mxCell id="1KUTH_EO7PLerWaIqpql-2" value="&lt;b&gt;IDLE&lt;/b&gt;&lt;div&gt;&lt;br&gt;&lt;/div&gt;&lt;div&gt;Wait for Start signal.&lt;/div&gt;" style="ellipse;whiteSpace=wrap;html=1;" parent="1" vertex="1">
          <mxGeometry x="131" y="155" width="130" height="90" as="geometry" />
        </mxCell>
        <mxCell id="1KUTH_EO7PLerWaIqpql-4" value="" style="curved=1;endArrow=classic;html=1;rounded=0;entryX=0.683;entryY=0.05;entryDx=0;entryDy=0;entryPerimeter=0;exitX=0.225;exitY=0.088;exitDx=0;exitDy=0;exitPerimeter=0;" parent="1" source="1KUTH_EO7PLerWaIqpql-2" target="1KUTH_EO7PLerWaIqpql-2" edge="1">
          <mxGeometry width="50" height="50" relative="1" as="geometry">
            <mxPoint x="161.1381696702049" y="165.00362725265373" as="sourcePoint" />
            <mxPoint x="222" y="155.93999999999997" as="targetPoint" />
            <Array as="points">
              <mxPoint x="121" y="134.9" />
              <mxPoint x="131" y="110" />
              <mxPoint x="231" y="74.9" />
            </Array>
          </mxGeometry>
        </mxCell>
        <mxCell id="-qx7lC0WzKSz2fgzRGue-3" value="!Start" style="edgeLabel;html=1;align=center;verticalAlign=middle;resizable=0;points=[];fontSize=15;" vertex="1" connectable="0" parent="1KUTH_EO7PLerWaIqpql-4">
          <mxGeometry x="-0.1484" y="-3" relative="1" as="geometry">
            <mxPoint y="-20" as="offset" />
          </mxGeometry>
        </mxCell>
        <mxCell id="-qx7lC0WzKSz2fgzRGue-4" value="" style="endArrow=classic;html=1;rounded=0;" edge="1" parent="1">
          <mxGeometry width="50" height="50" relative="1" as="geometry">
            <mxPoint x="20" y="180" as="sourcePoint" />
            <mxPoint x="131" y="180" as="targetPoint" />
          </mxGeometry>
        </mxCell>
        <mxCell id="-qx7lC0WzKSz2fgzRGue-5" value="Reset = 1" style="edgeLabel;html=1;align=center;verticalAlign=middle;resizable=0;points=[];fontSize=15;" vertex="1" connectable="0" parent="-qx7lC0WzKSz2fgzRGue-4">
          <mxGeometry x="-0.225" relative="1" as="geometry">
            <mxPoint y="25" as="offset" />
          </mxGeometry>
        </mxCell>
        <mxCell id="-qx7lC0WzKSz2fgzRGue-6" value="" style="endArrow=classic;html=1;rounded=0;exitX=1.042;exitY=0.425;exitDx=0;exitDy=0;exitPerimeter=0;entryX=0;entryY=0.5;entryDx=0;entryDy=0;" edge="1" parent="1" source="1KUTH_EO7PLerWaIqpql-2" target="1KUTH_EO7PLerWaIqpql-1">
          <mxGeometry width="50" height="50" relative="1" as="geometry">
            <mxPoint x="441" y="480" as="sourcePoint" />
            <mxPoint x="491" y="430" as="targetPoint" />
          </mxGeometry>
        </mxCell>
        <mxCell id="-qx7lC0WzKSz2fgzRGue-7" value="Start = 1" style="edgeLabel;html=1;align=center;verticalAlign=middle;resizable=0;points=[];fontSize=15;" vertex="1" connectable="0" parent="-qx7lC0WzKSz2fgzRGue-6">
          <mxGeometry x="-0.1707" y="-1" relative="1" as="geometry">
            <mxPoint x="-11" y="-24" as="offset" />
          </mxGeometry>
        </mxCell>
        <mxCell id="-qx7lC0WzKSz2fgzRGue-8" value="" style="curved=1;endArrow=classic;html=1;rounded=0;entryX=0.647;entryY=0.031;entryDx=0;entryDy=0;entryPerimeter=0;" edge="1" parent="1" source="1KUTH_EO7PLerWaIqpql-1" target="1KUTH_EO7PLerWaIqpql-1">
          <mxGeometry width="50" height="50" relative="1" as="geometry">
            <mxPoint x="420" y="127" as="sourcePoint" />
            <mxPoint x="480" y="124" as="targetPoint" />
            <Array as="points">
              <mxPoint x="381" y="98.9" />
              <mxPoint x="491" y="38.9" />
            </Array>
          </mxGeometry>
        </mxCell>
        <mxCell id="-qx7lC0WzKSz2fgzRGue-9" value="Count!=256" style="edgeLabel;html=1;align=center;verticalAlign=middle;resizable=0;points=[];fontSize=15;" vertex="1" connectable="0" parent="-qx7lC0WzKSz2fgzRGue-8">
          <mxGeometry x="-0.1484" y="-3" relative="1" as="geometry">
            <mxPoint as="offset" />
          </mxGeometry>
        </mxCell>
        <mxCell id="-qx7lC0WzKSz2fgzRGue-10" value="&lt;font style=&quot;font-size: 12px;&quot;&gt;&lt;b&gt;B12_ADDITION&lt;/b&gt;&lt;/font&gt;&lt;div style=&quot;&quot;&gt;&lt;font style=&quot;font-size: 12px;&quot;&gt;&lt;br&gt;&lt;/font&gt;&lt;/div&gt;&lt;div style=&quot;&quot;&gt;&lt;font style=&quot;font-size: 12px;&quot;&gt;Matrix Addition Biases B12&lt;/font&gt;&lt;/div&gt;&lt;div style=&quot;&quot;&gt;&lt;font style=&quot;font-size: 12px;&quot;&gt;&lt;br&gt;&lt;/font&gt;&lt;/div&gt;&lt;div style=&quot;&quot;&gt;&lt;font style=&quot;font-size: 12px;&quot;&gt;&lt;span style=&quot;background-color: initial;&quot;&gt;[40 x 1] +&amp;nbsp;&lt;/span&gt;&lt;/font&gt;&lt;span style=&quot;background-color: initial;&quot;&gt;[40 x 1]&amp;nbsp;&lt;/span&gt;&lt;span style=&quot;background-color: initial;&quot;&gt;=&amp;nbsp; [40 x 1]&lt;/span&gt;&lt;/div&gt;" style="ellipse;whiteSpace=wrap;html=1;" vertex="1" parent="1">
          <mxGeometry x="741" y="127" width="210" height="133" as="geometry" />
        </mxCell>
        <mxCell id="-qx7lC0WzKSz2fgzRGue-13" value="" style="endArrow=classic;html=1;rounded=0;" edge="1" parent="1" target="-qx7lC0WzKSz2fgzRGue-10">
          <mxGeometry width="50" height="50" relative="1" as="geometry">
            <mxPoint x="611" y="190" as="sourcePoint" />
            <mxPoint x="661" y="140" as="targetPoint" />
          </mxGeometry>
        </mxCell>
        <mxCell id="-qx7lC0WzKSz2fgzRGue-18" value="&lt;span style=&quot;font-size: 15px;&quot;&gt;Count=256&lt;/span&gt;" style="edgeLabel;html=1;align=center;verticalAlign=middle;resizable=0;points=[];" vertex="1" connectable="0" parent="-qx7lC0WzKSz2fgzRGue-13">
          <mxGeometry x="-0.1521" y="1" relative="1" as="geometry">
            <mxPoint y="-10" as="offset" />
          </mxGeometry>
        </mxCell>
        <mxCell id="-qx7lC0WzKSz2fgzRGue-14" value="&lt;b&gt;RELU_STAGE1&lt;/b&gt;&lt;br&gt;&lt;div style=&quot;&quot;&gt;&lt;font style=&quot;font-size: 12px;&quot;&gt;&lt;br&gt;&lt;/font&gt;&lt;/div&gt;&lt;div style=&quot;&quot;&gt;&lt;font style=&quot;font-size: 12px;&quot;&gt;Applly Leaky RELU on the output&lt;/font&gt;&lt;/div&gt;&lt;div style=&quot;&quot;&gt;&lt;br&gt;&lt;/div&gt;" style="ellipse;whiteSpace=wrap;html=1;" vertex="1" parent="1">
          <mxGeometry x="937" y="420" width="210" height="133" as="geometry" />
        </mxCell>
        <mxCell id="-qx7lC0WzKSz2fgzRGue-15" value="" style="curved=1;endArrow=classic;html=1;rounded=0;entryX=0.571;entryY=0.015;entryDx=0;entryDy=0;entryPerimeter=0;exitX=0;exitY=0;exitDx=0;exitDy=0;" edge="1" parent="1" source="-qx7lC0WzKSz2fgzRGue-14" target="-qx7lC0WzKSz2fgzRGue-14">
          <mxGeometry width="50" height="50" relative="1" as="geometry">
            <mxPoint x="877" y="420" as="sourcePoint" />
            <mxPoint x="976" y="408" as="targetPoint" />
            <Array as="points">
              <mxPoint x="910" y="400" />
              <mxPoint x="950" y="340" />
              <mxPoint x="1050" y="360" />
            </Array>
          </mxGeometry>
        </mxCell>
        <mxCell id="-qx7lC0WzKSz2fgzRGue-16" value="Count!=40" style="edgeLabel;html=1;align=center;verticalAlign=middle;resizable=0;points=[];fontSize=15;" vertex="1" connectable="0" parent="-qx7lC0WzKSz2fgzRGue-15">
          <mxGeometry x="-0.1484" y="-3" relative="1" as="geometry">
            <mxPoint x="26" y="-12" as="offset" />
          </mxGeometry>
        </mxCell>
        <mxCell id="-qx7lC0WzKSz2fgzRGue-20" value="&lt;b&gt;W23_MULTIPLY&lt;/b&gt;&lt;br&gt;&lt;div style=&quot;&quot;&gt;&lt;font style=&quot;font-size: 12px;&quot;&gt;&lt;br&gt;&lt;/font&gt;&lt;/div&gt;&lt;div style=&quot;&quot;&gt;&lt;font style=&quot;font-size: 12px;&quot;&gt;Matrix Multiply Weights W23 with RELU Output&lt;/font&gt;&lt;/div&gt;&lt;div style=&quot;&quot;&gt;&lt;font style=&quot;font-size: 12px;&quot;&gt;&lt;br&gt;&lt;/font&gt;&lt;/div&gt;&lt;div style=&quot;&quot;&gt;w23 x a2 = [10 x 40]&amp;nbsp; * [40 x 1]&amp;nbsp;&amp;nbsp;&lt;/div&gt;&lt;div style=&quot;&quot;&gt;= [10 x 1]&lt;br&gt;&lt;/div&gt;" style="ellipse;whiteSpace=wrap;html=1;" vertex="1" parent="1">
          <mxGeometry x="610" y="420" width="210" height="133" as="geometry" />
        </mxCell>
        <mxCell id="-qx7lC0WzKSz2fgzRGue-22" value="" style="curved=1;endArrow=classic;html=1;rounded=0;entryX=0.647;entryY=0.031;entryDx=0;entryDy=0;entryPerimeter=0;" edge="1" parent="1">
          <mxGeometry width="50" height="50" relative="1" as="geometry">
            <mxPoint x="657" y="434.1" as="sourcePoint" />
            <mxPoint x="756" y="422.1" as="targetPoint" />
            <Array as="points">
              <mxPoint x="600" y="390" />
              <mxPoint x="710" y="330" />
            </Array>
          </mxGeometry>
        </mxCell>
        <mxCell id="-qx7lC0WzKSz2fgzRGue-23" value="Count!=40" style="edgeLabel;html=1;align=center;verticalAlign=middle;resizable=0;points=[];fontSize=15;" vertex="1" connectable="0" parent="-qx7lC0WzKSz2fgzRGue-22">
          <mxGeometry x="-0.1484" y="-3" relative="1" as="geometry">
            <mxPoint x="33" y="-18" as="offset" />
          </mxGeometry>
        </mxCell>
        <mxCell id="-qx7lC0WzKSz2fgzRGue-24" value="" style="endArrow=classic;html=1;rounded=0;exitX=0;exitY=0.5;exitDx=0;exitDy=0;entryX=1;entryY=0.5;entryDx=0;entryDy=0;" edge="1" parent="1" source="-qx7lC0WzKSz2fgzRGue-14" target="-qx7lC0WzKSz2fgzRGue-20">
          <mxGeometry width="50" height="50" relative="1" as="geometry">
            <mxPoint x="570" y="510" as="sourcePoint" />
            <mxPoint x="620" y="460" as="targetPoint" />
          </mxGeometry>
        </mxCell>
        <mxCell id="-qx7lC0WzKSz2fgzRGue-25" value="&lt;span style=&quot;font-size: 15px;&quot;&gt;Count=40&lt;/span&gt;" style="edgeLabel;html=1;align=center;verticalAlign=middle;resizable=0;points=[];" vertex="1" connectable="0" parent="-qx7lC0WzKSz2fgzRGue-24">
          <mxGeometry x="0.0256" relative="1" as="geometry">
            <mxPoint x="3" y="-16" as="offset" />
          </mxGeometry>
        </mxCell>
        <mxCell id="-qx7lC0WzKSz2fgzRGue-26" value="&lt;b&gt;B23_ADDITION&lt;/b&gt;&lt;br&gt;&lt;div style=&quot;&quot;&gt;&lt;font style=&quot;font-size: 12px;&quot;&gt;&lt;br&gt;&lt;/font&gt;&lt;/div&gt;&lt;div style=&quot;&quot;&gt;&lt;font style=&quot;font-size: 12px;&quot;&gt;Matrix Addition Biases B23&lt;/font&gt;&lt;/div&gt;&lt;div style=&quot;&quot;&gt;&lt;font style=&quot;font-size: 12px;&quot;&gt;&lt;br&gt;&lt;/font&gt;&lt;/div&gt;&lt;div style=&quot;&quot;&gt;&lt;font style=&quot;font-size: 12px;&quot;&gt;&lt;span style=&quot;background-color: initial;&quot;&gt;[10 x 1] +&amp;nbsp;&lt;/span&gt;&lt;/font&gt;&lt;span style=&quot;background-color: initial;&quot;&gt;[10 x 1]&amp;nbsp;&lt;/span&gt;&lt;span style=&quot;background-color: initial;&quot;&gt;=&amp;nbsp; [10 x 1]&lt;/span&gt;&lt;/div&gt;" style="ellipse;whiteSpace=wrap;html=1;" vertex="1" parent="1">
          <mxGeometry x="301" y="420" width="210" height="133" as="geometry" />
        </mxCell>
        <mxCell id="-qx7lC0WzKSz2fgzRGue-27" value="" style="endArrow=classic;html=1;rounded=0;exitX=0;exitY=0.5;exitDx=0;exitDy=0;entryX=1;entryY=0.5;entryDx=0;entryDy=0;" edge="1" parent="1" source="-qx7lC0WzKSz2fgzRGue-20" target="-qx7lC0WzKSz2fgzRGue-26">
          <mxGeometry width="50" height="50" relative="1" as="geometry">
            <mxPoint x="570" y="410" as="sourcePoint" />
            <mxPoint x="620" y="360" as="targetPoint" />
          </mxGeometry>
        </mxCell>
        <mxCell id="-qx7lC0WzKSz2fgzRGue-28" value="Count = 10" style="edgeLabel;html=1;align=center;verticalAlign=middle;resizable=0;points=[];fontSize=15;" vertex="1" connectable="0" parent="-qx7lC0WzKSz2fgzRGue-27">
          <mxGeometry x="0.0667" y="-1" relative="1" as="geometry">
            <mxPoint y="-25" as="offset" />
          </mxGeometry>
        </mxCell>
        <mxCell id="-qx7lC0WzKSz2fgzRGue-29" value="&lt;b&gt;RELU_STAGE2&lt;/b&gt;&lt;br&gt;&lt;div style=&quot;&quot;&gt;&lt;font style=&quot;font-size: 12px;&quot;&gt;&lt;br&gt;&lt;/font&gt;&lt;/div&gt;&lt;div style=&quot;&quot;&gt;&lt;font style=&quot;font-size: 12px;&quot;&gt;Applly Leaky RELU on the output&lt;/font&gt;&lt;/div&gt;&lt;div style=&quot;&quot;&gt;&lt;br&gt;&lt;/div&gt;" style="ellipse;whiteSpace=wrap;html=1;" vertex="1" parent="1">
          <mxGeometry x="380" y="690.4" width="210" height="133" as="geometry" />
        </mxCell>
        <mxCell id="-qx7lC0WzKSz2fgzRGue-33" value="" style="endArrow=classic;html=1;rounded=0;exitX=0;exitY=0.5;exitDx=0;exitDy=0;entryX=-0.005;entryY=0.456;entryDx=0;entryDy=0;entryPerimeter=0;" edge="1" parent="1" source="-qx7lC0WzKSz2fgzRGue-26" target="-qx7lC0WzKSz2fgzRGue-29">
          <mxGeometry width="50" height="50" relative="1" as="geometry">
            <mxPoint x="570" y="510" as="sourcePoint" />
            <mxPoint x="620" y="460" as="targetPoint" />
            <Array as="points">
              <mxPoint x="250" y="487" />
              <mxPoint x="250" y="750" />
            </Array>
          </mxGeometry>
        </mxCell>
        <mxCell id="-qx7lC0WzKSz2fgzRGue-35" value="" style="curved=1;endArrow=classic;html=1;rounded=0;entryX=0.644;entryY=0.037;entryDx=0;entryDy=0;entryPerimeter=0;exitX=0.222;exitY=0.101;exitDx=0;exitDy=0;exitPerimeter=0;" edge="1" parent="1" source="-qx7lC0WzKSz2fgzRGue-29" target="-qx7lC0WzKSz2fgzRGue-29">
          <mxGeometry width="50" height="50" relative="1" as="geometry">
            <mxPoint x="428" y="684" as="sourcePoint" />
            <mxPoint x="517" y="666" as="targetPoint" />
            <Array as="points">
              <mxPoint x="401" y="660" />
              <mxPoint x="411" y="610" />
              <mxPoint x="501" y="620" />
            </Array>
          </mxGeometry>
        </mxCell>
        <mxCell id="-qx7lC0WzKSz2fgzRGue-36" value="Count!=10" style="edgeLabel;html=1;align=center;verticalAlign=middle;resizable=0;points=[];fontSize=15;" vertex="1" connectable="0" parent="-qx7lC0WzKSz2fgzRGue-35">
          <mxGeometry x="-0.1484" y="-3" relative="1" as="geometry">
            <mxPoint x="26" y="-12" as="offset" />
          </mxGeometry>
        </mxCell>
        <mxCell id="-qx7lC0WzKSz2fgzRGue-37" value="&lt;b&gt;PREDICTION&lt;/b&gt;&lt;br&gt;&lt;div style=&quot;&quot;&gt;&lt;font style=&quot;font-size: 12px;&quot;&gt;&lt;br&gt;&lt;/font&gt;&lt;/div&gt;&lt;div style=&quot;&quot;&gt;&lt;span style=&quot;background-color: initial;&quot;&gt;Find the MAX of the output of RELU 10x1 matrix&lt;/span&gt;&lt;br&gt;&lt;/div&gt;" style="ellipse;whiteSpace=wrap;html=1;" vertex="1" parent="1">
          <mxGeometry x="727" y="690.4" width="210" height="133" as="geometry" />
        </mxCell>
        <mxCell id="-qx7lC0WzKSz2fgzRGue-38" value="" style="endArrow=classic;html=1;rounded=0;exitX=1;exitY=0.5;exitDx=0;exitDy=0;entryX=0;entryY=0.5;entryDx=0;entryDy=0;" edge="1" parent="1" source="-qx7lC0WzKSz2fgzRGue-29" target="-qx7lC0WzKSz2fgzRGue-37">
          <mxGeometry width="50" height="50" relative="1" as="geometry">
            <mxPoint x="920" y="550" as="sourcePoint" />
            <mxPoint x="970" y="500" as="targetPoint" />
          </mxGeometry>
        </mxCell>
        <mxCell id="-qx7lC0WzKSz2fgzRGue-39" value="&lt;span style=&quot;font-size: 15px;&quot;&gt;Count = 10&lt;/span&gt;" style="edgeLabel;html=1;align=center;verticalAlign=middle;resizable=0;points=[];" vertex="1" connectable="0" parent="-qx7lC0WzKSz2fgzRGue-38">
          <mxGeometry x="-0.1229" y="-1" relative="1" as="geometry">
            <mxPoint y="-18" as="offset" />
          </mxGeometry>
        </mxCell>
        <mxCell id="-qx7lC0WzKSz2fgzRGue-40" value="&lt;b&gt;FINISHED&lt;/b&gt;&lt;br&gt;&lt;div style=&quot;&quot;&gt;&lt;font style=&quot;font-size: 12px;&quot;&gt;&lt;br&gt;&lt;/font&gt;&lt;/div&gt;&lt;div style=&quot;&quot;&gt;&lt;span style=&quot;background-color: initial;&quot;&gt;Set the DONE Signal&lt;/span&gt;&lt;br&gt;&lt;/div&gt;" style="ellipse;whiteSpace=wrap;html=1;" vertex="1" parent="1">
          <mxGeometry x="1034" y="690.4" width="210" height="133" as="geometry" />
        </mxCell>
        <mxCell id="-qx7lC0WzKSz2fgzRGue-41" value="" style="endArrow=classic;html=1;rounded=0;exitX=1;exitY=0.5;exitDx=0;exitDy=0;entryX=0;entryY=0.5;entryDx=0;entryDy=0;" edge="1" parent="1" source="-qx7lC0WzKSz2fgzRGue-37" target="-qx7lC0WzKSz2fgzRGue-40">
          <mxGeometry width="50" height="50" relative="1" as="geometry">
            <mxPoint x="920" y="550" as="sourcePoint" />
            <mxPoint x="970" y="500" as="targetPoint" />
          </mxGeometry>
        </mxCell>
        <mxCell id="-qx7lC0WzKSz2fgzRGue-42" value="&lt;span style=&quot;font-size: 15px;&quot;&gt;Count = 10&lt;/span&gt;" style="edgeLabel;html=1;align=center;verticalAlign=middle;resizable=0;points=[];" vertex="1" connectable="0" parent="-qx7lC0WzKSz2fgzRGue-41">
          <mxGeometry x="-0.1459" relative="1" as="geometry">
            <mxPoint x="3" y="-27" as="offset" />
          </mxGeometry>
        </mxCell>
        <mxCell id="-qx7lC0WzKSz2fgzRGue-44" value="" style="endArrow=classic;html=1;rounded=0;exitX=0.617;exitY=1.014;exitDx=0;exitDy=0;entryX=0.5;entryY=1;entryDx=0;entryDy=0;exitPerimeter=0;" edge="1" parent="1" source="-qx7lC0WzKSz2fgzRGue-40" target="1KUTH_EO7PLerWaIqpql-2">
          <mxGeometry width="50" height="50" relative="1" as="geometry">
            <mxPoint x="1201" y="760" as="sourcePoint" />
            <mxPoint x="1251" y="757" as="targetPoint" />
            <Array as="points">
              <mxPoint x="1164" y="890" />
              <mxPoint x="201" y="890" />
            </Array>
          </mxGeometry>
        </mxCell>
        <mxCell id="-qx7lC0WzKSz2fgzRGue-45" value="" style="endArrow=classic;html=1;rounded=0;exitX=1;exitY=0.5;exitDx=0;exitDy=0;entryX=1;entryY=0.5;entryDx=0;entryDy=0;" edge="1" parent="1" source="-qx7lC0WzKSz2fgzRGue-10" target="-qx7lC0WzKSz2fgzRGue-14">
          <mxGeometry width="50" height="50" relative="1" as="geometry">
            <mxPoint x="1041" y="200" as="sourcePoint" />
            <mxPoint x="1091" y="150" as="targetPoint" />
            <Array as="points">
              <mxPoint x="1231" y="194" />
              <mxPoint x="1231" y="487" />
            </Array>
          </mxGeometry>
        </mxCell>
      </root>
    </mxGraphModel>
  </diagram>
</mxfile>
